<svg id="Capa_1" data-name="Capa 1" xmlns="http://www.w3.org/2000/svg" viewBox="0 0 200 200"><defs><style>.cls-1,.cls-4{fill:#1d1d1b;}.cls-2,.cls-3{fill:#e20613;}.cls-2,.cls-4{stroke:#1d1d1b;stroke-miterlimit:10;stroke-width:6.66px;}.cls-5{fill:#fff;}</style></defs><title>Sin título-1</title><rect class="cls-1" width="200" height="200"/><path class="cls-2" d="M113.91,31.78" transform="translate(0)"/><path class="cls-2" d="M113.91,69.36" transform="translate(0)"/><polygon class="cls-3" points="107.31 31.78 113.9 22.63 120.51 31.78 107.31 31.78"/><path class="cls-3" d="M31.71,80.57V48.93h6.88V80.57a13.28,13.28,0,0,1-4,9.75,13.23,13.23,0,0,1-9.73,4,13.28,13.28,0,0,1-9.74-4,13.29,13.29,0,0,1-4-9.75V48.93h6.88V80.57a6.91,6.91,0,0,0,6.9,6.91,6.9,6.9,0,0,0,6.88-6.91Z" transform="translate(0)"/><path class="cls-3" d="M52.83,84.69v9.67H46V48.87h7.4A17.91,17.91,0,0,1,71.28,66.76,17.92,17.92,0,0,1,53.35,84.69Zm0-6.82h.52a11.12,11.12,0,0,0,7.86-19,10.71,10.71,0,0,0-7.86-3.25h-.52Z" transform="translate(0)"/><path class="cls-3" d="M88.68,94.42a16.77,16.77,0,0,1-5.2-.74A17.35,17.35,0,0,1,78.64,91V82.6a19.51,19.51,0,0,0,2.46,2.29,24,24,0,0,0,2.1,1.27A15.22,15.22,0,0,0,86,87.3a10.33,10.33,0,0,0,3,.46,6.47,6.47,0,0,0,5-2.11,7.07,7.07,0,0,0,2-5,4.9,4.9,0,0,0-1.65-3.84,26.88,26.88,0,0,0-5.44-3.38C87.26,72.67,86,72,84.94,71.33a16.33,16.33,0,0,1-3-2.36,11.24,11.24,0,0,1-2.34-3.36A11,11,0,0,1,78.7,61,11.87,11.87,0,0,1,80,56.22,12.73,12.73,0,0,1,83,52.32a14.35,14.35,0,0,1,4.41-2.6,14,14,0,0,1,8.94-.35,16.76,16.76,0,0,1,3.84,1.83v7.09a14.14,14.14,0,0,0-1.76-1.06,14.1,14.1,0,0,1-1.35-.68,11.29,11.29,0,0,0-2-.81,8.82,8.82,0,0,0-2.44-.34,7.14,7.14,0,0,0-4.88,1.83,5.46,5.46,0,0,0-2,4.16A4.56,4.56,0,0,0,87.44,65a25.08,25.08,0,0,0,5.2,3c1.64.78,3,1.46,4,2.05a16.91,16.91,0,0,1,3,2.31,10.33,10.33,0,0,1,2.42,3.56,13.45,13.45,0,0,1,1,5.09A12,12,0,0,1,102,86.11a13.76,13.76,0,0,1-3.16,4.32,15.34,15.34,0,0,1-4.65,2.93A14.64,14.64,0,0,1,88.68,94.42Z" transform="translate(0)"/><path class="cls-3" d="M110.47,31.78h6.88V94.36h-6.88Z" transform="translate(0)"/><path class="cls-3" d="M124.72,94.36V49.17H133a22.6,22.6,0,0,1,22.6,22.59A22.62,22.62,0,0,1,133,94.36ZM131.59,56V87.48H133a15.74,15.74,0,0,0,15.75-15.72A15.74,15.74,0,0,0,133,56Z" transform="translate(0)"/><path class="cls-3" d="M163,49.17h20.94v6.88h-14v16.7h14v6.87h-14v7.86h14v6.88H163Z" transform="translate(0)"/><polygon class="cls-3" points="187.46 169.16 179.52 180.2 171.54 169.16 187.46 169.16"/><path class="cls-3" d="M22.58,101.24a21.64,21.64,0,0,1,15.9,6.6,22.48,22.48,0,0,1,0,31.8,21.67,21.67,0,0,1-15.9,6.59H14.29v-45Zm0,38.17a15.15,15.15,0,0,0,11.08-4.58,15.64,15.64,0,0,0,0-22.16,15.12,15.12,0,0,0-11.08-4.59H21.14v31.33Z" transform="translate(0)"/><path class="cls-3" d="M96.83,132.7a22.61,22.61,0,0,1-5,7.23,23.65,23.65,0,0,1-7.34,4.83,23.77,23.77,0,0,1-18,0,23.65,23.65,0,0,1-7.34-4.83,22.63,22.63,0,0,1-5-7.23,21.92,21.92,0,0,1-1.81-8.84A21.58,21.58,0,0,1,54.22,115a22.82,22.82,0,0,1,5-7.17A23.85,23.85,0,0,1,66.53,103a23.52,23.52,0,0,1,18,0,23.85,23.85,0,0,1,7.34,4.84,22.79,22.79,0,0,1,5,7.17,21.59,21.59,0,0,1,1.82,8.82A21.93,21.93,0,0,1,96.83,132.7ZM61,130a15.34,15.34,0,0,0,8.37,8.3,16.38,16.38,0,0,0,12.26,0,15.22,15.22,0,0,0,5-3.31A15.59,15.59,0,0,0,90,130a16,16,0,0,0,0-12.25,15.54,15.54,0,0,0-14.45-9.52,15.69,15.69,0,0,0-11.16,4.53,15.46,15.46,0,0,0-3.36,5A15.87,15.87,0,0,0,61,130Z" transform="translate(0)"/><path class="cls-3" d="M108,101.11l7.92,24.73,8.47-26.53,8.46,26.53,7.89-24.73h7.18l-15.07,47.17-8.46-26.47-8.47,26.47-15.1-47.17Z" transform="translate(0)"/><path class="cls-3" d="M155.23,148.31V101.24h6.84v26.25L183,99.25v71h-6.83l0-50.29Z" transform="translate(0)"/><path class="cls-4" d="M115.4,29" transform="translate(0)"/><path class="cls-4" d="M115.4,66.54" transform="translate(0)"/><polygon class="cls-5" points="108.8 28.95 115.39 19.8 122 28.95 108.8 28.95"/><path class="cls-5" d="M33.19,77.75V46.1h6.88V77.75A13.74,13.74,0,0,1,26.32,91.53a13.28,13.28,0,0,1-9.75-4,13.3,13.3,0,0,1-4-9.75V46.1h6.87V77.75a6.93,6.93,0,0,0,6.91,6.91,6.6,6.6,0,0,0,4.86-2A6.68,6.68,0,0,0,33.19,77.75Z" transform="translate(0)"/><path class="cls-5" d="M54.31,81.86v9.67H47.44V46h7.39a17.92,17.92,0,0,1,17.93,17.9A17.92,17.92,0,0,1,54.83,81.86Zm0-6.81h.52a11.11,11.11,0,0,0,7.86-19,10.71,10.71,0,0,0-7.86-3.26h-.52Z" transform="translate(0)"/><path class="cls-5" d="M90.16,91.59a16.83,16.83,0,0,1-5.2-.73,17.45,17.45,0,0,1-4.83-2.64V79.78a18.66,18.66,0,0,0,2.45,2.28,23.25,23.25,0,0,0,2.11,1.28,14.81,14.81,0,0,0,2.74,1.13,10.1,10.1,0,0,0,3,.46,6.5,6.5,0,0,0,5-2.1,7.08,7.08,0,0,0,1.95-5A4.94,4.94,0,0,0,95.69,74a27.09,27.09,0,0,0-5.43-3.37c-1.52-.78-2.8-1.49-3.84-2.12a16.67,16.67,0,0,1-3-2.36,10.64,10.64,0,0,1-3.22-8,11.64,11.64,0,0,1,1.26-4.81,12.81,12.81,0,0,1,3.07-3.9,14.28,14.28,0,0,1,4.4-2.59,14.87,14.87,0,0,1,5.2-.92,14.39,14.39,0,0,1,3.75.57,17.08,17.08,0,0,1,3.84,1.82v7.09a12.88,12.88,0,0,0-1.77-1.05c-.32-.14-.77-.36-1.35-.68a9.76,9.76,0,0,0-2-.81,8.42,8.42,0,0,0-2.44-.34,7.14,7.14,0,0,0-4.88,1.83,5.43,5.43,0,0,0-2,4.15,4.59,4.59,0,0,0,1.67,3.58,25,25,0,0,0,5.2,3q2.46,1.17,4,2.06a16.38,16.38,0,0,1,3.05,2.3,10.31,10.31,0,0,1,2.43,3.56,13.7,13.7,0,0,1,1,5.1,12.15,12.15,0,0,1-1.13,5.14,13.75,13.75,0,0,1-3.17,4.31,15,15,0,0,1-4.65,2.93A14.41,14.41,0,0,1,90.16,91.59Z" transform="translate(0)"/><path class="cls-5" d="M112,29h6.87V91.53H112Z" transform="translate(0)"/><path class="cls-5" d="M126.2,91.53V46.35h8.32a22.57,22.57,0,0,1,22.59,22.59,22.6,22.6,0,0,1-22.59,22.59Zm6.88-38.34V84.66h1.44a15.76,15.76,0,0,0,15.75-15.72,15.76,15.76,0,0,0-15.75-15.75Z" transform="translate(0)"/><path class="cls-5" d="M164.48,46.35h20.93v6.87h-14v16.7h14V76.8h-14v7.86h14v6.87H164.48Z" transform="translate(0)"/><polygon class="cls-5" points="188.95 166.34 181 177.37 173.03 166.34 188.95 166.34"/><path class="cls-5" d="M24.06,98.41A21.65,21.65,0,0,1,40,105a22.49,22.49,0,0,1,0,31.81,21.67,21.67,0,0,1-15.91,6.58H15.78v-45Zm0,38.18A15.12,15.12,0,0,0,35.14,132a15.64,15.64,0,0,0,0-22.16,15.15,15.15,0,0,0-11.08-4.58H22.63v31.33Z" transform="translate(0)"/><path class="cls-5" d="M98.32,129.88a22.63,22.63,0,0,1-5,7.23A23.71,23.71,0,0,1,86,141.94a23.77,23.77,0,0,1-18,0,23.78,23.78,0,0,1-7.33-4.83,22.47,22.47,0,0,1-5-7.23A21.94,21.94,0,0,1,53.89,121a21.59,21.59,0,0,1,1.82-8.82,22.5,22.5,0,0,1,5-7.16A23.83,23.83,0,0,1,68,100.2a23.52,23.52,0,0,1,18,0,23.76,23.76,0,0,1,7.34,4.85,22.66,22.66,0,0,1,5,7.16,21.59,21.59,0,0,1,1.82,8.82A21.94,21.94,0,0,1,98.32,129.88Zm-35.81-2.72a15.68,15.68,0,0,0,3.36,5,15.48,15.48,0,0,0,5,3.32,16.36,16.36,0,0,0,12.25,0,15.29,15.29,0,0,0,5-3.32,16,16,0,0,0,3.35-5,16,16,0,0,0,0-12.26,16,16,0,0,0-3.35-5,15.31,15.31,0,0,0-5-3.33,15.91,15.91,0,0,0-17.27,3.33,15.68,15.68,0,0,0-3.36,5,16,16,0,0,0,0,12.26Z" transform="translate(0)"/><path class="cls-5" d="M109.46,98.29,117.38,123l8.46-26.53L134.31,123l7.88-24.73h7.18l-15.06,47.16L125.84,119l-8.46,26.47-15.1-47.16Z" transform="translate(0)"/><path class="cls-5" d="M156.71,145.48V98.41h6.85v26.26l20.87-28.24v71H177.6V117.18Z" transform="translate(0)"/></svg>